<svg width="227" height="72" viewBox="0 0 227 72" fill="none" xmlns="http://www.w3.org/2000/svg">
<path fill-rule="evenodd" clip-rule="evenodd" d="M144.184 0.371592C144.488 0.869329 144.577 1.66512 144.315 2.16286C143.441 3.85428 141.561 3.50631 140.294 4.40194C136.882 6.29305 133.517 8.6305 130.851 12.3129C130.413 12.9105 129.844 13.3583 129.146 13.4581C128.665 13.3583 128.184 13.1101 127.964 12.5625C127.616 9.17816 128.969 6.14329 130.151 3.25671C133.429 -0.92193 139.025 2.06302 143.049 0.0221503C143.528 -0.0762224 143.833 0.173379 144.184 0.371592ZM61.5991 3.50778C62.2983 4.00551 62.9975 4.8013 63.1729 5.69693C63.5664 7.24006 62.8672 8.48221 62.0803 9.62744C59.1945 12.6139 55.6972 14.3053 51.7188 13.6578C51.1499 13.4097 50.5384 13.1101 50.2753 12.4142C50.1011 11.5186 50.4933 10.7228 51.1499 10.4247C51.8942 10.1266 52.5934 9.32938 53.0308 8.53359C52.7689 7.3399 51.6311 6.99047 50.7564 6.64249C43.5439 5.89662 36.7674 7.93602 30.6024 10.7727C23.564 14.6533 13.9895 21.1723 14.0772 31.6717C13.6399 39.4329 19.9352 45.6524 25.4875 48.5889C35.0182 54.1125 48.3957 53.2668 58.0141 48.5889C58.801 48.5889 59.6757 48.4891 60.2871 49.1366C60.7245 49.6842 61.1179 50.4301 60.8122 51.2758C59.9375 53.1655 58.058 53.4151 56.5719 54.2123C40.702 59.8328 20.1984 59.4378 7.08271 47.3438C1.96777 42.666 -0.830294 36.1984 0.218495 28.7852C2.31736 15.7985 14.7764 8.98141 24.3071 5.29904C35.3252 1.61667 48.3957 -0.970386 60.113 2.71199L61.5991 3.50778ZM163.463 13.9074C163.857 16.1465 162.107 17.5898 161.8 19.5792C161.496 20.723 161.057 21.9182 161.145 23.1618C162.85 22.0165 164.206 19.9771 165.824 18.6836C169.934 15.2508 173.998 11.6184 179.026 10.6728C180.599 10.5231 182.042 11.1207 182.873 12.6623C183.616 14.1056 183.486 16.0951 183.266 17.788C181.823 23.2616 179.901 28.5356 178.545 34.0591C178.633 34.8065 178.633 35.6008 179.33 35.9517C182.26 34.8564 184.533 31.4735 186.721 28.8865C191.223 23.4628 193.935 15.8 200.186 12.6653C204.997 9.48209 212.558 9.28094 217.105 13.2129C220.864 16.8454 220.732 23.6624 219.246 28.4387C217.498 35.454 211.421 42.3224 205.082 43.7643C199.793 44.9565 193.847 44.4088 190.35 39.4344C189.3 37.693 188.687 35.7036 188.294 33.6142C183.529 38.8383 178.634 44.0638 171.944 44.2635C170.458 44.0623 169.014 43.3164 168.185 41.6735C166.086 36.5977 168.489 31.2254 169.757 26.4477C170.107 25.304 170.545 24.2086 170.589 22.8652C170.02 22.5671 169.322 22.965 168.71 23.2132C161.932 26.8456 157.256 35.0546 153.277 41.7733C152.096 43.4647 150.655 45.3059 148.556 44.908C147.2 44.61 145.801 43.8641 145.101 42.321C144.488 41.2741 144.927 39.7824 145.016 38.6386C145.671 35.6023 146.764 32.6173 147.551 29.7806C140.95 36.6476 133.91 42.2681 125.734 44.9066C124.555 45.0563 123.199 45.1048 122.282 44.2091C121.145 43.1138 120.707 41.5736 121.015 39.8822C122.413 33.7611 124.381 27.9395 125.691 21.8183C125.691 21.1723 124.993 21.1209 124.817 20.5248C124.597 19.6776 124.817 18.8334 125.34 18.2358C128.883 15.1011 132.904 13.3098 137.233 12.4641C137.934 12.4641 138.589 12.9119 138.981 13.6578C139.547 16.6927 137.451 18.9332 136.84 21.6201C135.573 25.4508 134.302 29.233 133.604 33.3632C133.604 33.7611 133.559 34.3087 133.998 34.4071C136.752 34.0092 138.851 31.82 141.035 29.7806C147.331 24.0075 151.352 16.4959 157.298 10.3249C159.529 9.27946 161.453 11.1207 162.982 12.9134L163.463 13.9074ZM203.64 18.2857C199.092 21.6201 196.338 27.242 196.557 33.3617C196.732 34.805 197.3 36.3481 198.611 36.9442C201.847 37.6417 204.384 34.9533 206.48 32.2664C208.756 28.584 210.678 23.9576 209.234 19.2797C208.143 16.9423 205.257 16.8923 203.64 18.2857Z" fill="#FEAF0F"/>
<path fill-rule="evenodd" clip-rule="evenodd" d="M82.6278 16.4945C83.1528 17.0421 83.5463 17.5898 83.5024 18.3856C83.5463 20.077 82.2343 21.1723 81.9286 22.714C80.1252 27.6367 78.5205 32.6506 77.1194 37.74C76.9014 38.6371 77.1194 39.5328 77.5128 40.2287C78.2998 41.7205 81.0978 40.8762 80.267 43.315C77.0755 46.0988 73.4467 47.7432 69.4257 48.1411C67.7203 48.1896 66.0162 48.2409 65.0099 46.6993C64.4849 45.7523 64.5288 44.4602 64.5288 43.3649C58.1896 47.4452 48.8769 50.6797 42.1017 45.4557C39.8287 43.3649 38.7347 40.2801 39.3475 36.9472C42.8435 21.9182 56.9654 17.4899 68.7691 15.9952C72.9217 15.4975 77.4251 15.2993 81.5351 15.9952L82.6278 16.4945ZM69.7314 22.1663C63.5238 22.9621 57.7084 25.1513 53.2939 30.6748C51.5447 33.0622 49.6651 35.8489 50.67 39.0835C51.5447 40.6751 53.294 40.8762 54.9104 40.6266C63.1291 39.8807 68.026 29.9275 70.4306 22.2661L69.7314 22.1663ZM119.788 15.8969C120.007 16.6427 119.743 17.3901 119.395 17.9377C118.081 19.4295 116.421 20.2267 114.673 20.077C114.192 19.9272 114.103 19.2812 114.277 18.8334C114.277 18.4854 114.935 18.3356 114.673 17.9377C112.529 16.2948 109.469 16.7441 107.022 17.3402C105.624 17.8379 104.092 18.4854 103.306 20.077C103.13 20.9726 103.262 21.8682 103.787 22.5157C105.318 23.9091 107.154 24.5052 108.814 25.4522C111.787 24.6065 115.067 23.8093 118.256 24.4069C118.782 24.655 118.956 25.3524 118.737 25.9001C117.034 27.2435 114.758 26.9954 112.923 27.8895C114.716 29.233 116.552 31.174 116.683 33.7111C117.164 38.9851 113.71 43.2151 110.081 46.1516C103.96 50.6283 95.8286 51.5739 88.2213 50.0807C86.254 49.5844 84.0687 47.9928 83.6314 45.5555C82.8884 40.678 86.0786 36.8459 89.4017 34.3587C91.7624 32.6173 94.2548 31.2739 96.7909 29.9304C94.9552 28.3873 91.369 26.8955 92.2436 23.4128C93.5117 19.6806 97.009 17.8408 99.8509 16.3476C105.315 14.2084 111.568 12.467 117.731 14.1086C118.476 14.5035 119.351 14.9014 119.788 15.8969ZM100.815 32.3662C99.3284 33.0123 97.9287 33.9079 96.4865 34.7052C94.2135 36.2967 91.3716 37.8399 90.1912 40.8762C89.7539 42.02 89.8416 43.66 90.7162 44.5586C92.8138 46.25 95.9615 46.25 98.4538 45.5541C101.076 44.4587 104.138 43.0155 105.448 39.8822C105.929 38.3391 105.404 36.5478 104.268 35.4026C103.088 34.4056 102.083 33.0137 100.815 32.3662Z" fill="#FEAF0F"/>
<path fill-rule="evenodd" clip-rule="evenodd" d="M226.46 50.1791C226.722 50.2305 226.634 50.5285 226.722 50.7267L216.404 59.4364C210.11 58.9856 203.814 58.1399 197.432 57.6921L178.545 56.6482C157.167 55.6527 135.787 56.3986 114.324 57.6921L93.4691 59.4364L71.6973 61.7254L48.0899 64.8087L23.6955 68.4426L4.50386 71.6772C3.5415 72.0751 2.09926 72.1735 1.18076 71.5773C0.787302 71.2308 0.699581 70.6832 0.875024 70.184C1.57422 69.1885 2.71073 69.1885 3.71695 68.9918L27.763 64.4152L63.6553 58.4453L91.7662 54.4135L116.466 51.4285L138.893 49.3891L161.932 47.9444L180.688 47.4966C195.857 47.3439 211.594 48.0398 226.46 50.1791Z" fill="#CC2131"/>
</svg>
